<svg width="69" height="287" viewBox="0 0 69 287" fill="none" xmlns="http://www.w3.org/2000/svg">
<path fill-rule="evenodd" clip-rule="evenodd" d="M-8.38011 136.652C-5.66883 136.628 -2.88984 139.325 -0.936533 140.911C-6.01951 137.512 -14.0687 137.635 -19.897 136.816C-25.568 136.019 -31.1986 134.822 -36.6734 133.102C-36.7933 133.066 -48.9331 129.09 -44.822 126.808C-33.4502 120.429 -19.3675 137.216 -8.38011 136.652V136.652ZM-87.2867 84.3287C-85.15 89.5698 -75.687 115.235 -84.8838 117.068C-92.2032 118.525 -98.4821 102.907 -98.8758 97.6873C-99.5248 88.9971 -99.1284 80.3256 -100.34 71.647C-95.2447 75.5529 -89.8258 78.0371 -87.2867 84.3287V84.3287ZM-176.664 243.059C-180.173 247.394 -183.72 251.725 -187.538 255.792C-183.528 250.822 -179.703 245.827 -175.194 241.293L-176.665 243.059L-176.664 243.059ZM59.1739 42.9015C57.2493 40.4193 49.7293 43.4518 47.5763 43.9387C41.6704 45.2712 35.2791 46.4558 29.8804 44.1192C25.2497 42.9554 32.7459 34.9249 33.9192 31.8529C34.7421 29.6991 36.4582 24.2388 35.032 22.0429C31.9753 17.3387 25.5769 22.8523 22.391 25.0252C17.7253 28.2088 15.7947 30.27 16.6017 24.4267C17.4704 18.1457 24.0538 7.56632 17.3935 2.00231C11.72 -2.73605 2.90255 6.26137 -0.524429 9.87606C-6.98813 16.6828 -9.98787 24.3827 -11.3667 33.5476C-11.6892 35.6842 -14.1634 48.3194 -16.3349 46.0932C-20.6684 40.5245 -17.2378 32.3487 -20.6596 26.3478C-22.6048 22.9374 -25.2834 21.2468 -26.9182 17.4096C-28.5329 13.6213 -30.1637 6.82935 -35.3863 6.41806C-38.7012 6.15829 -40.8907 8.90088 -41.4383 11.6352C-43.1753 18.047 -41.8685 23.8201 -41.9807 30.3133C-42.0645 35.0646 -45.1872 38.6369 -44.0262 43.5254C-42.1547 50.9767 -39.713 58.7911 -38.4497 66.5508C-38.0536 68.983 -36.7111 80.0557 -41.4738 77.8908C-44.1558 76.672 -43.8784 66.3109 -44.0608 64.49C-44.4985 60.1392 -44.4338 55.7972 -47.053 52.0284C-48.5543 49.8679 -51.0439 49.0365 -52.2028 47.3406C-55.6262 42.3259 -55.3947 33.8257 -58.2214 28.3178C-60.7586 23.3757 -67.4791 11.395 -73.38 10.2229C-81.4595 8.61733 -78.4198 19.6157 -77.8929 24.439C-77.3076 29.779 -76.4101 34.6495 -76.8838 39.8596C-77.2988 44.4592 -76.9697 48.1868 -75.2062 52.6549C-71.9487 60.91 -67.0409 68.0298 -62.9229 75.5507C-62.9312 75.5221 -62.9414 75.4941 -62.9533 75.4668C-60.6417 79.8817 -58.7175 85.3554 -58.9328 90.4603C-59.2949 99.0178 -62.2567 94.6606 -64.8569 88.8368C-68.7798 80.057 -71.3374 70.6685 -75.2128 61.8899C-76.5936 58.7628 -78.2495 55.5889 -81.1286 53.5503C-83.06 52.1829 -85.4501 52.5147 -86.9496 51.6865C-92.1671 48.8129 -111.377 16.2521 -119.443 25.9581C-123.799 31.1986 -112.985 42.4017 -110.705 46.3218C-107.063 52.5828 -103.199 56.9028 -103.568 64.3341C-105.686 62.3671 -108.597 63.3924 -110.533 61.8301C-112.833 59.9712 -113.478 56.0286 -114.555 53.4504C-117.517 46.3626 -121.002 39.3834 -125.635 33.2683C-139.774 14.61 -137.395 42.8164 -135.995 52.1316C-135.726 53.9185 -135.412 56.2007 -135.134 58.2353C-134.411 63.5715 -135.652 64.438 -136.415 69.1549C-137.712 77.1805 -128.252 87.7682 -123.362 93.5174C-121.855 95.2934 -98.6048 124.103 -108.798 123.862C-113.938 123.74 -122.602 109.128 -125.001 104.642C-128.689 97.744 -131.222 83.962 -138.88 80.3839C-141.286 79.2602 -143.273 80.4418 -145.502 79.5551C-150.709 77.4902 -154.243 69.3374 -158.009 65.5222C-165.675 57.758 -175.094 58.837 -168.681 71.4335C-166.141 76.4177 -164.882 79.744 -163.323 85.1688C-161.543 91.3572 -155.955 94.5459 -153.383 99.9673C-151.258 104.448 -154.565 102.051 -154.374 107.384C-154.213 111.812 -147.344 116.657 -144.112 119.12C-139.622 122.542 -119.382 134.008 -123.35 140.926C-126.967 147.232 -138.767 137.724 -141.921 134.832C-149.813 127.598 -152.961 117.833 -157.4 108.464C-159.564 103.897 -162.04 98.3541 -165.581 94.6572C-168.686 91.4185 -172.219 90.975 -176.067 89.301C-180.546 87.3531 -200.291 76.9656 -199.381 89.5187C-198.77 97.9527 -187.02 102.037 -185.551 110.087C-190.836 107.733 -201.899 97.0265 -208.197 102.655C-214.277 108.089 -202.213 119.818 -198.538 124.252C-196.283 126.971 -180.844 139.206 -181.104 143.792C-181.376 148.579 -186.917 146.865 -190.118 146.229C-195.593 145.145 -244.62 133.076 -244.402 143.068C-244.235 150.816 -225.383 148.194 -222.947 152.588C-222.052 154.202 -224.001 154.99 -224.346 156.713C-225.609 163.029 -223.515 165.553 -216.882 166.245C-223.181 181.342 -202.327 173.332 -195.316 170.924C-190.54 169.283 -170.22 161.853 -168.814 172.048C-168.34 175.476 -174.08 180.876 -175.058 184.229C-176.942 190.698 -172.191 194.668 -165.95 192.48C-161.656 190.977 -157.756 187.175 -155.001 183.652C-153.417 181.631 -150.619 174.978 -147.978 174.517C-148.241 185.468 -141.854 179.806 -136.027 175.1C-131.669 171.581 -120.814 162.012 -114.336 165.818C-119.408 172.856 -126.338 178.461 -131.877 185.107C-137.94 192.388 -144.25 199.187 -151.243 206.067C-164.506 219.114 -177.799 233.334 -189.467 247.755C-195.175 254.809 -201.356 261.529 -207.474 268.227C-209.683 270.642 -223.548 281.478 -218.689 285.88C-212.117 291.833 -200.708 269.319 -196.017 266.713C-173.715 241.347 -149.947 217.263 -128.33 191.409C-129.22 194.326 -128.245 202.551 -123.836 202.41C-124.875 204.807 -127.992 208.46 -127.268 211.205C-125.662 217.275 -123.205 211.806 -120.928 212.162C-117.036 212.772 -120.231 219.788 -120.951 222.648C-124.312 235.974 -124.943 250.535 -125.809 264.243C-126.283 271.765 -119.96 292.585 -109.281 283.674C-103.949 279.227 -103.398 268.093 -103.059 261.86C-102.844 257.927 -104.639 247.01 -101.911 243.608C-97.3941 245.995 -91.9746 256.735 -89.0745 260.581C-82.9447 268.716 -77.5808 273.887 -66.9301 274.583C-41.6252 276.236 -72.2698 247.495 -69.2162 245.57C-67.0671 244.217 -52.251 256.715 -50.291 258.208C-45.9477 261.516 -32.7172 269.587 -27.8598 262.818C-23.786 257.138 -34.2062 247.631 -37.2983 243.973C-39.8917 240.905 -41.8282 236.706 -45.0745 233.617C-47.745 231.075 -51.3222 229.628 -53.9668 227.208C-56.7175 224.692 -56.8768 221.07 -59.9435 218.192C-63.3834 214.957 -68.0612 212.256 -71.8484 209.311C-78.1783 204.392 -87.1342 197.996 -87.8757 189.068C-73.4161 190.863 -63.5417 206.605 -53.6689 215.753C-48.7309 220.328 -42.9175 226.198 -35.7661 224.64C-32.8937 224.013 -35.969 223.454 -32.1238 223.188C-31.2609 223.129 -30.0925 223.634 -29.2565 223.829C-23.262 225.241 -17.52 227.426 -11.576 228.99C-7.88941 229.961 3.93942 234.277 7.24503 230.73C13.238 224.296 -12.6378 208.132 -17.212 204.548C-20.6727 201.839 -24.8361 199.522 -28.1027 196.709C-31.1006 194.128 -32.1083 190.684 -36.1401 188.784C-41.3602 186.323 -47.4288 185.478 -52.871 183.631C-60.1913 181.145 -66.2853 177.5 -72.3784 172.815C-74.9017 170.875 -81.0276 166.7 -79.7033 163.188C-77.5721 157.548 -67.9637 164.755 -65.2418 166.299C-57.1815 170.876 -49.6378 178.168 -39.6697 181.177C-29.359 184.292 -24.0632 194.424 -14.5688 198.96C-11.1391 200.598 -9.20865 200.754 -5.59253 200.087C-1.56901 199.35 0.338078 198.883 5.06496 200.085C9.34903 201.176 30.02 207.891 28.4473 198.249C27.9376 195.121 23.4038 193.831 21.1055 192.553C16.0423 189.733 11.1256 186.624 5.9944 183.929C2.7365 182.218 -1.40391 181.037 -4.07114 178.383C-6.60106 175.865 -7.1658 173.304 -10.8048 171.665C-15.7044 169.456 -23.0706 169.813 -27.3614 166.826C-31.4539 163.981 -34.6893 159.892 -39.3751 157.264C-43.1044 155.176 -64.2339 147.354 -63.6558 143.861C-62.4845 136.762 -38.6881 150.33 -36.8555 151.326C-25.1763 157.672 -13.7225 166.136 -1.73289 172.113C2.29706 174.121 5.42389 173.374 9.13656 173.919C14.068 174.643 19.2199 178.03 24.2276 179.203C28.2192 180.138 38.6583 182.58 36.6211 175.63C35.1513 170.607 25.6009 166.278 21.6081 163.238C17.0925 159.804 12.8888 156.086 7.9991 153.181C6.94746 152.555 4.62968 151.764 3.85834 150.9C1.72804 148.503 3.13874 144.852 0.575761 142.155C3.26687 144.741 5.92078 146.083 9.57293 146.119C10.526 146.131 12.362 145.109 13.5587 144.96C17.17 144.509 21.4226 145.719 25.0392 146.129C30.1185 146.699 55.7169 145.97 42.5313 136.996C36.8953 133.161 30.5571 130.253 24.2803 127.68C19.3493 125.658 12.8905 124.174 8.73454 120.779C4.42748 117.259 3.63765 115.442 -2.62346 114.511C-9.05747 113.556 -18.1355 113.745 -23.1942 109.103C-33.498 99.6445 0.819516 105.994 4.46887 106.915C11.8412 108.777 19.8112 110.237 27.3483 108.571C35.7524 106.715 42.7133 102.73 51.5519 102.327C55.4934 102.149 68.4066 102.554 68.1807 96.2209C67.9597 89.9852 53.5169 89.5708 49.6844 88.8025C45.7252 88.0095 41.2253 87.7391 37.4202 86.5796C33.9665 85.5251 31.3306 83.2974 27.9655 81.9983C18.4255 78.3108 10.3199 83.0147 0.807742 82.5731C-4.21419 82.3396 -6.60818 80.3643 -1.35892 76.7776C1.4729 74.8385 6.02189 74.6577 9.36042 73.719C14.3825 72.3086 19.3268 70.51 24.2848 68.8809C30.9753 66.6795 68.5414 54.8996 59.1739 42.9015" fill="#89B99A"/>
</svg>
