<svg width="169" height="370" viewBox="0 0 169 370" fill="none" xmlns="http://www.w3.org/2000/svg">
<path fill-rule="evenodd" clip-rule="evenodd" d="M85.5039 128.531C73.0281 124.556 60.0221 123.621 47.0933 122.225C51.2127 121.317 55.6726 120.102 59.8682 119.636C63.7291 119.213 66.027 120.804 69.6606 122.071C76.1467 124.336 83.3927 127.088 89.0312 129.719C87.8619 129.304 86.686 128.908 85.5039 128.531V128.531ZM67.7369 133.494C54.0496 130.935 40.037 130.378 26.3692 127.703C29.758 126.666 31.6777 125.762 35.2796 126.105C40.6328 126.614 46.0497 127.712 51.2811 128.877C58.8729 130.569 66.5325 132.393 73.9287 134.793C71.8745 134.315 69.8101 133.882 67.7369 133.494V133.494ZM68.3953 136.166C67.4592 136.545 64.1758 135.261 63.1147 135.031C64.1367 135.226 67.7965 136.408 68.3953 136.166ZM41.1441 135.883C30.4337 135.21 19.5943 134.873 8.86557 134.928C10.7914 134.209 12.6309 133.306 14.5075 132.465C19.6388 130.165 20.5306 130.531 25.6535 132.044C32.2606 133.996 39.0299 135.107 45.8044 136.238C44.2529 136.093 42.699 135.975 41.1434 135.883L41.1441 135.883ZM28.6459 142.058C13.8603 143.179 -0.724628 144.969 -15.4843 146.622C-12.3339 145.349 -9.30404 143.729 -6.29369 142.165C-1.64691 139.753 1.92034 140.093 7.09999 140.092C12.602 140.089 18.0059 140.736 23.4753 141.358C24.8249 141.514 30.1091 141.947 28.6459 142.058V142.058ZM5.86266 130.819C13.7564 123.153 22.8118 116.009 32.0891 110.038C37.9778 106.248 44.3815 101.968 51.3011 105.255C39.8566 105.73 24.9056 116.11 18.1328 125.008C17.808 125.429 17.3111 125.721 16.9719 126.135C15.7011 127.679 17.0859 127.847 16.2204 128.797C16.1197 128.908 11.4961 130.796 12.1096 130.544C8.97324 131.838 5.76349 132.924 2.62178 134.2C3.68458 133.055 4.76322 131.927 5.86344 130.819L5.86266 130.819ZM49.897 112.454C42.1271 118.952 33.6978 122.411 24.3396 125.671C32.8859 120.174 41.4551 115.678 50.8496 111.742C50.5311 111.978 50.2138 112.215 49.8973 112.454L49.897 112.454ZM59.5664 114.684C61.1856 114.165 61.9085 114.299 62.2689 116.223C58.0838 116.064 56.0961 116.637 52.1417 117.597C54.5462 116.455 57.0271 115.482 59.5664 114.684V114.684ZM64.7019 115.734C64.4104 115.206 64.2856 114.198 64.0828 113.682C67.1899 113.632 69.8286 114.289 72.4688 115.919C71.5944 115.927 64.9175 116.697 64.7016 115.733L64.7019 115.734ZM-61.2868 187.866C-38.5726 185.062 -16.7872 184.331 6.02536 186.557C-11.1613 188.063 -28.4198 191.516 -45.3312 194.868C-58.9095 197.559 -72.6779 199.012 -86.2952 201.445C-83.772 198.818 -81.4132 196.036 -78.8429 193.447C-74.379 188.952 -67.6899 188.666 -61.2868 187.866V187.866ZM16.8064 194.564C20.9072 194.144 24.9985 193.635 29.0775 193.038C33.5109 192.384 40.5827 189.461 45.0441 190.341C20.6874 197.572 -5.63341 200.903 -30.6723 204.977C-41.0802 206.67 -51.6758 209.146 -61.7579 212.288C-76.3146 216.821 -92.7341 216.797 -106.627 223.166C-102.378 218.713 -97.7251 212.343 -92.8848 208.722C-89.3671 206.088 -83.5311 205.869 -79.3454 205.317C-72.4542 204.408 -65.5291 203.702 -58.6195 202.959C-33.4674 200.25 -8.35532 197.193 16.8064 194.564V194.564ZM-110.565 218.675C-112.609 220.924 -114.597 223.222 -116.53 225.567C-113.023 209.11 -113.182 191.753 -111.208 175.045C-110.091 165.598 -109.043 156.045 -107.541 146.66C-106.213 138.373 -105.86 127.083 -101.419 119.924C-98.1036 123.004 -95.6525 126.273 -96.3107 130.749C-97.1572 136.506 -99.6359 142.039 -100.789 147.75C-102.084 154.168 -102.96 160.701 -103.76 167.198C-104.992 177.19 -105.278 187.356 -104.749 197.403C-104.606 200.227 -104.425 203.05 -104.204 205.869C-104.108 207.099 -103.47 209.196 -103.742 210.346C-104.405 213.174 -108.428 216.307 -110.565 218.675V218.675ZM-86.0759 150.152C-84.1299 140.904 -82.9435 130.159 -78.8944 121.49C-76.6467 116.673 -74.4849 114.958 -71.1258 120.163C-68.7283 123.876 -72.4935 132.027 -73.6801 136.695C-77.0448 149.938 -78.8207 163.527 -81.0467 176.993C-81.628 180.522 -81.8004 184.011 -82.1755 187.544C-82.4882 190.472 -82.4072 190.299 -84.0937 192.504C-85.1779 193.928 -86.8885 195.138 -88.1962 196.388C-91.6241 199.665 -95.0993 202.898 -98.4915 206.212C-93.3316 187.742 -90.013 168.896 -86.0759 150.152V150.152ZM167.876 192.18C164.748 188.019 160.78 184.267 156.722 181.052C151.1 176.592 144.215 173.984 138.601 169.695C133.879 166.085 129.978 161.281 125.152 157.625C117.486 151.823 109.597 146.997 100.62 143.51C112.053 147.413 123.017 152.111 132.175 160.208C132.949 160.894 139.658 169.485 141.046 168.664C141.996 168.11 137.97 161.892 137.131 160.444C130.942 149.796 118.242 142.982 108.206 136.144C96.8718 128.421 84.4953 124.088 71.5817 119.816C83.3141 120.465 93.1978 123.479 103.026 130.082C107.86 133.328 112.333 137.12 117.316 140.134C121.733 142.807 125.976 145.271 129.788 148.856C134.058 152.876 137.489 157.255 140.323 162.39C141.388 164.321 146.589 176.013 146.728 168.587C146.797 164.927 142.175 159.711 140.305 157.067C137.151 152.612 133.492 148.599 129.663 144.719C123.149 138.124 116.932 131.28 109.201 126.078C104.804 123.117 100.199 120.771 95.1685 119.08C91.2834 117.772 87.2952 116.833 83.2188 116.371C79.3473 115.933 78.9746 115.979 75.8939 113.978C73.2468 112.258 70.9873 110.417 68.0254 109.189C65.0069 107.937 62.4378 107.758 60.1919 106.05C57.5427 104.031 56.5151 101.663 53.0965 100.399C49.9535 99.235 46.7377 99.4908 43.4587 99.7525C32.6145 100.616 21.6046 103.365 12.6335 109.779C4.70523 115.449 -0.684816 124.499 -4.51668 133.323C-6.63267 138.192 -5.19627 138.009 -10.8794 140.807C-16.8541 143.75 -22.7948 146.641 -28.6076 149.925C-19.024 138.01 -10.6924 124.818 -0.185453 113.651C5.43258 107.687 10.9429 101.626 16.5595 95.6647C18.2177 93.9082 31.3148 81.2559 23.9578 81.7042C22.2569 81.8068 19.6982 84.0807 18.135 84.8272C15.0151 86.3247 11.9172 87.6518 9.03342 89.6089C4.03425 93.0017 -0.0461062 97.223 -4.13376 101.613C-14.7232 112.986 -24.2674 125.15 -29.1524 140.083C-30.3092 143.617 -30.7319 147.601 -32.5448 150.843C-33.8218 153.131 -35.3215 153.921 -37.9147 155.61C-42.3619 158.503 -46.6843 161.477 -50.8961 164.711C-40.1277 148.759 -33.1823 130.906 -24.6977 113.729C-13.7856 91.6438 -8.79408 66.8571 0.384407 44.0381C2.16453 39.6121 4.33302 34.7418 7.32069 30.9746C8.22935 29.8289 11.102 28.1115 11.3526 26.6669C12.0151 22.8558 9.43423 23.8788 7.53978 24.9747C2.89606 27.659 -1.6123 33.7145 -4.78515 37.7963C-9.40258 43.7332 -14.0794 50.1737 -18.0791 56.5705C-31.8586 78.6021 -40.9929 103.604 -48.5801 128.35C-52.1501 139.983 -55.8313 151.808 -57.5874 163.871C-58.4341 169.696 -57.4711 169.852 -62.3367 173.839C-67.4181 178.004 -72.2737 182.422 -77.3149 186.629C-72.7215 177.193 -69.9842 165.491 -66.6696 155.481C-63.1993 144.994 -59.2519 134.665 -55.7248 124.194C-49.9888 107.155 -45.6958 89.7099 -41.5661 72.2281C-39.3727 62.9332 -37.3172 53.6313 -35.4373 44.271C-33.0209 32.2425 -30.5644 18.3532 -25.1746 7.25786C-24.3707 5.60768 -21.1049 -2.05958 -25.8311 0.580893C-27.9965 1.78802 -30.5624 9.68879 -31.6673 11.8189C-37.9283 23.9164 -43.2026 36.1999 -47.9148 48.9746C-56.2673 71.626 -62.1279 94.8385 -68.7454 118.002C-72.0546 113.482 -78.9262 108.507 -84.8631 110.43C-90.1956 112.158 -92.8178 119.75 -94.4951 124.507C-94.6818 121.216 -98.7184 115.078 -101.865 114.868C-103.653 114.748 -106.734 116.442 -108.229 117.149C-111.926 118.897 -116.125 121.108 -118.43 124.548C-123.154 131.606 -122.257 142.683 -123.096 150.852C-125.594 175.213 -125.143 198.735 -122.388 222.997C-121.758 228.549 -120.998 231.124 -124.155 235.5C-127.762 240.499 -131.239 245.414 -134.79 250.108C-133.649 247.934 -134.681 241.29 -134.694 238.971C-134.732 232.762 -134.669 226.606 -134.347 220.401C-133.687 207.623 -134.374 194.415 -135.019 181.628C-136.346 155.283 -136.228 129.273 -135.343 102.935C-135.157 97.3844 -135.283 91.8686 -135.317 86.3214C-135.332 84.0311 -134.575 78.4209 -138.211 79.7618C-139.267 80.1507 -140.044 84.2468 -140.351 85.2857C-143.183 94.8619 -144.071 105.222 -145.368 115.057C-146.546 124.002 -147.622 132.961 -148.368 141.951C-149.802 159.22 -149.327 175.99 -149.238 193.288C-149.163 207.537 -147.617 223.03 -144.982 236.176C-143.746 242.341 -141.599 249.003 -140.973 255.217C-140.594 258.959 -142.783 260.345 -145.296 263.742C-147.84 267.178 -150.353 270.64 -152.78 274.159C-152.547 268.767 -154.084 263.192 -154.445 257.797C-154.747 253.29 -155.034 248.804 -155.44 244.302C-155.763 240.756 -156.068 237.207 -156.382 233.658C-158.003 215.391 -159.586 197.164 -162.576 179.064C-167.172 151.271 -172.186 122.707 -172.003 94.432C-171.967 89.0358 -171.793 83.6433 -171.731 78.2457C-171.686 74.1774 -172.06 70.1414 -172.084 66.0788C-172.097 64.007 -171.153 60.0006 -171.844 57.9361C-173.844 51.9625 -175.575 58.637 -175.63 61.3802C-175.658 62.8256 -175.745 64.2667 -175.767 65.7115C-175.899 74.7897 -176.68 83.7436 -177.127 92.8115C-177.769 105.887 -177.193 118.897 -176.758 131.965C-176.282 146.201 -176.637 160.535 -175.106 174.718C-173.131 193 -169.178 211.176 -166.696 229.41C-165.616 237.351 -164.11 245.204 -163.292 253.182C-162.53 260.637 -159.883 267.967 -158.271 274.855L-158.28 274.327C-157.655 277.254 -156.675 278.718 -157.565 281.404C-158.192 283.292 -159.912 285.275 -160.942 287.009C-163.139 290.696 -165.248 294.427 -167.358 298.164C-165.489 288.677 -168.025 276.707 -170.032 267.388C-172.251 257.076 -174.955 246.515 -178.12 236.458C-180.581 228.638 -182.618 220.951 -183.361 212.81C-184.352 201.969 -187.301 191.543 -188.887 180.802C-190.383 170.662 -192.902 160.62 -195.049 150.581C-195.533 148.322 -197.692 137.512 -201.202 142.388C-202.067 143.591 -201.006 146.786 -200.87 148.029C-200.535 151.109 -200.327 154.14 -200.188 157.231C-199.291 176.861 -195.179 196.788 -191.956 216.128C-189.896 228.485 -187.715 240.887 -184.705 253.049C-182.362 262.519 -181.096 272.357 -178.496 281.694C-177.249 286.172 -175.983 290.75 -173.99 294.955C-172.257 298.614 -170.51 299.637 -171.121 303.58C-171.996 309.218 -176.794 315.07 -178.959 320.528C-180.73 324.991 -182.536 329.46 -184.223 333.954C-186.58 340.249 -188.788 346.655 -190.856 353.049C-192.056 356.752 -194.384 361.532 -194.602 365.299C-194.934 371.02 -191.696 369.385 -189.996 365.558C-188.853 362.982 -187.94 360.212 -186.864 357.592C-178.972 338.405 -171.747 317.831 -159.962 300.614C-155.046 293.424 -141.456 291.693 -133.482 289.187C-114.301 283.151 -93.5496 282.356 -73.6466 280.152C-57.5976 278.377 -41.8089 276.745 -26.0972 272.799C-23.8022 272.224 18.0776 259.895 17.0268 257.744C17.6135 258.951 -28.7912 269.276 -32.5075 269.58C-44.1612 270.529 -55.778 270.783 -67.4574 271.276C-96.6712 272.51 -125.406 273.209 -151.95 287.013C-148.601 281.743 -144.595 271.796 -138.715 269.756C-127.383 265.82 -115.439 263.278 -104.023 259.439C-92.1546 255.455 -79.9667 252.786 -68.029 249.094C-56.1046 245.405 -44.2066 241.584 -32.1009 238.482C-19.9327 235.365 -7.36268 232.116 5.28146 232.518C10.1483 232.673 15.0288 233.106 19.8749 233.564C21.7051 233.737 36.2718 236.432 28.3949 233.085C23.2939 230.916 16.6161 230.748 11.152 229.952C4.88589 229.042 -1.12051 228.233 -7.4536 228.282C-21.2434 228.388 -35.0956 231.62 -48.4249 234.819C-64.3775 238.644 -80.9842 242.44 -96.2116 248.597C-110.168 254.241 -124.195 259.659 -138.152 265.232C-135.614 261.347 -132.915 257.578 -130.275 253.761C-128.993 251.905 -127.64 248.892 -125.819 247.625C-123.04 245.688 -117.193 245.186 -113.965 244.111C-100.979 239.793 -87.9337 234.722 -74.6266 231.511C-53.2306 226.346 -31.3254 223.143 -9.79602 218.546C2.76839 215.867 16.0738 213.502 28.9208 213.731C33.7534 213.82 38.5928 213.644 43.3378 214.666C45.0166 215.025 47.1303 215.956 48.8591 216.151C54.0318 216.732 50.1942 214.244 47.0555 213.155C22.1834 204.54 -5.23136 211.423 -30.3023 214.925C-46.8825 217.239 -63.2508 219.599 -79.0815 225.302C-93.6679 230.555 -107.613 237.563 -122.442 242.175C-118.556 236.651 -115.091 230.931 -108.882 227.892C-102.01 224.532 -94.7667 223.071 -87.2671 221.797C-71.6746 219.142 -56.1866 215.741 -40.5439 213.428C-26.1737 211.307 -11.8295 209.424 2.41475 206.527C16.2841 203.702 30.0721 202.053 43.3092 196.715C47.5004 195.024 52.5812 192.094 57.0561 191.839C62.8562 191.509 69.8791 193.247 75.5668 194.109C89.4192 196.205 103.798 198.366 116.604 204.232C129.169 209.989 137.701 219.035 147.321 228.492C150.351 231.476 153.333 234.51 156.355 237.502C157.028 238.169 161.044 243.177 161.872 243.241C166.995 243.625 157.331 233.469 155.663 231.388C144.138 217.007 131.666 205.014 114.712 197.178C100.264 190.499 85.1585 186.154 69.4029 183.929C69.4427 181.081 81.0503 180.94 81.3683 177.99C81.7889 174.054 73.6671 177.991 72.0574 178.476C69.0001 179.393 66.027 180.541 62.9553 181.41C55.9021 183.403 48.0977 180.946 40.9321 180.026C32.2931 178.92 23.5398 178.196 14.8513 177.672C-13.9108 175.934 -41.5068 176.886 -69.4424 184.592C-64.4299 180.2 -59.2008 176.027 -53.9028 171.986C-51.84 170.414 -50.2676 168.973 -47.9305 168.235C-43.9832 166.988 -39.2967 167.546 -35.1818 167.143C-18.9146 165.558 -2.72163 163.776 13.6354 163.275C40.5543 162.451 68.6213 167.287 94.1504 175.849C106.605 180.027 118.824 184.091 129.639 191.782C132.142 193.56 134.369 195.601 136.645 197.655C137.585 198.505 143.329 204.682 143.621 204.649C146.112 204.383 134.56 191.599 132.882 189.965C110.324 168.036 81.0571 163.048 51.1723 158.643C19.9214 154.035 -11.4463 156.478 -42.2333 163.423C-36.0858 159.587 -30.0439 153.012 -23.1425 150.782C-17.9002 149.086 -11.2461 149.409 -5.94146 148.866C9.4419 147.285 25.5666 149.974 40.9836 151.067C58.3997 152.301 75.3179 154.536 92.1571 159.179C100.773 161.554 109.163 164.068 117.569 167.153C124.231 169.598 129.667 171.103 135.058 175.569C137.232 177.387 143.701 182.215 147.202 185.497C148.629 186.838 150.108 189.67 151.722 190.343C157.732 192.852 149.755 183.057 148.445 181.356C153.223 184.212 157.683 187.518 161.925 191.037C162.764 191.736 163.567 192.268 164.416 192.906C165.414 193.657 165.936 195.848 167.644 195.117C169.034 194.52 168.54 193.087 167.876 192.18" fill="#012A32"/>
</svg>
